<svg width="32" height="33" viewBox="0 0 32 33" fill="none" xmlns="http://www.w3.org/2000/svg">
<path d="M27.9293 11.076C27.9159 10.0661 27.7268 9.06633 27.3706 8.1213C27.0618 7.32416 26.59 6.60023 25.9855 5.99574C25.381 5.39125 24.6571 4.9195 23.86 4.61063C22.9271 4.26044 21.9415 4.07108 20.9453 4.05063C19.6626 3.9933 19.256 3.97729 16 3.97729C12.744 3.97729 12.3266 3.9773 11.0533 4.05063C10.0575 4.07123 9.07244 4.26059 8.13997 4.61063C7.34272 4.91928 6.61867 5.39095 6.01415 5.99547C5.40963 6.59999 4.93796 7.32404 4.6293 8.1213C4.27841 9.05347 4.08947 10.0388 4.07064 11.0346C4.01331 12.3186 3.99597 12.7253 3.99597 15.9813C3.99597 19.2373 3.99597 19.6533 4.07064 20.928C4.09064 21.9253 4.27864 22.9093 4.6293 23.844C4.93848 24.641 5.4105 25.3647 6.01522 25.969C6.61994 26.5733 7.34406 27.0447 8.1413 27.3533C9.07122 27.7176 10.0565 27.9205 11.0546 27.9533C12.3386 28.0106 12.7453 28.028 16.0013 28.028C19.2573 28.028 19.6746 28.028 20.948 27.9533C21.9442 27.9337 22.9298 27.7448 23.8626 27.3946C24.6596 27.0854 25.3833 26.6135 25.9878 26.0091C26.5922 25.4046 27.0641 24.6809 27.3733 23.884C27.724 22.9506 27.912 21.9666 27.932 20.968C27.9893 19.6853 28.0066 19.2786 28.0066 16.0213C28.004 12.7653 28.004 12.352 27.9293 11.076ZM15.992 22.1386C12.5866 22.1386 9.82797 19.38 9.82797 15.9746C9.82797 12.5693 12.5866 9.81063 15.992 9.81063C17.6268 9.81063 19.1946 10.46 20.3506 11.616C21.5066 12.772 22.156 14.3398 22.156 15.9746C22.156 17.6094 21.5066 19.1773 20.3506 20.3332C19.1946 21.4892 17.6268 22.1386 15.992 22.1386ZM22.4013 11.02C22.2125 11.0201 22.0255 10.9831 21.8511 10.9109C21.6766 10.8387 21.5181 10.7329 21.3846 10.5994C21.2511 10.4659 21.1452 10.3073 21.073 10.1329C21.0009 9.95842 20.9638 9.77143 20.964 9.58263C20.964 9.39396 21.0011 9.20714 21.0733 9.03284C21.1455 8.85854 21.2514 8.70016 21.3848 8.56675C21.5182 8.43334 21.6765 8.32752 21.8509 8.25532C22.0252 8.18312 22.212 8.14596 22.4006 8.14596C22.5893 8.14596 22.7761 8.18312 22.9504 8.25532C23.1247 8.32752 23.2831 8.43334 23.4165 8.56675C23.5499 8.70016 23.6557 8.85854 23.7279 9.03284C23.8001 9.20714 23.8373 9.39396 23.8373 9.58263C23.8373 10.3773 23.1946 11.02 22.4013 11.02Z" fill="#144B63"/>
<path d="M15.992 19.9787C18.2033 19.9787 19.996 18.1861 19.996 15.9747C19.996 13.7634 18.2033 11.9707 15.992 11.9707C13.7806 11.9707 11.988 13.7634 11.988 15.9747C11.988 18.1861 13.7806 19.9787 15.992 19.9787Z" fill="#144B63"/>
</svg>
