<svg width="32" height="33" viewBox="0 0 32 33" fill="none" xmlns="http://www.w3.org/2000/svg">
<path d="M6.64402 9.59858C8.25522 9.59858 9.56135 8.29245 9.56135 6.68125C9.56135 5.07005 8.25522 3.76392 6.64402 3.76392C5.03282 3.76392 3.72668 5.07005 3.72668 6.68125C3.72668 8.29245 5.03282 9.59858 6.64402 9.59858Z" fill="#144B63"/>
<path d="M12.316 11.8094V27.9948H17.3413V19.9908C17.3413 17.8788 17.7386 15.8334 20.3573 15.8334C22.94 15.8334 22.972 18.2481 22.972 20.1241V27.9961H28V19.1201C28 14.7601 27.0613 11.4094 21.9653 11.4094C19.5186 11.4094 17.8786 12.7521 17.208 14.0228H17.14V11.8094H12.316ZM4.12665 11.8094H9.15998V27.9948H4.12665V11.8094Z" fill="#144B63"/>
</svg>
