<svg width="32" height="33" viewBox="0 0 32 33" fill="none" xmlns="http://www.w3.org/2000/svg">
<path d="M26.1774 10.6653C26.1947 10.8987 26.1947 11.1307 26.1947 11.3627C26.1947 18.4627 20.7907 26.644 10.9147 26.644C7.87202 26.644 5.04535 25.7627 2.66669 24.232C3.09869 24.2813 3.51469 24.2987 3.96402 24.2987C6.38134 24.3045 8.73021 23.4962 10.632 22.004C9.51125 21.9837 8.42479 21.6139 7.52434 20.9463C6.62389 20.2787 5.9544 19.3465 5.60935 18.28C5.94135 18.3293 6.27469 18.3627 6.62402 18.3627C7.10535 18.3627 7.58935 18.296 8.03869 18.18C6.82237 17.9344 5.72865 17.2751 4.94351 16.3142C4.15837 15.3534 3.73028 14.1502 3.73202 12.9093V12.8427C4.44802 13.2413 5.27869 13.4907 6.15869 13.524C5.42147 13.0341 4.81698 12.3694 4.39914 11.589C3.9813 10.8087 3.7631 9.93714 3.76402 9.052C3.76402 8.05466 4.02935 7.14 4.49469 6.34266C5.84421 8.00269 7.52736 9.36074 9.43513 10.3289C11.3429 11.297 13.4328 11.8536 15.5694 11.9627C15.4867 11.5627 15.436 11.148 15.436 10.732C15.4357 10.0266 15.5743 9.32807 15.8441 8.67632C16.1139 8.02456 16.5095 7.43236 17.0083 6.93358C17.5071 6.4348 18.0992 6.03921 18.751 5.76943C19.4028 5.49966 20.1013 5.36098 20.8067 5.36133C22.3534 5.36133 23.7494 6.00933 24.7307 7.05733C25.9331 6.82482 27.0861 6.38589 28.1387 5.76C27.7379 7.00108 26.8984 8.05347 25.7774 8.72C26.8437 8.59837 27.8859 8.31793 28.8694 7.888C28.1349 8.95879 27.2247 9.89779 26.1774 10.6653Z" fill="#144B63"/>
</svg>
