<svg width="32" height="33" viewBox="0 0 32 33" fill="none" xmlns="http://www.w3.org/2000/svg">
<path d="M28.7907 9.60678C28.6388 9.04331 28.342 8.52945 27.9298 8.11633C27.5177 7.70322 27.0045 7.40526 26.4413 7.25211C24.3533 6.67878 16 6.66944 16 6.66944C16 6.66944 7.64801 6.66011 5.55868 7.20811C4.99591 7.36831 4.48377 7.67048 4.07143 8.08562C3.65909 8.50077 3.36039 9.01494 3.20401 9.57878C2.65335 11.6668 2.64801 15.9974 2.64801 15.9974C2.64801 15.9974 2.64268 20.3494 3.18935 22.4161C3.49601 23.5588 4.39601 24.4614 5.54001 24.7694C7.64935 25.3428 15.98 25.3521 15.98 25.3521C15.98 25.3521 24.3333 25.3614 26.4213 24.8148C26.9847 24.6619 27.4983 24.3646 27.9115 23.9524C28.3248 23.5401 28.6232 23.0271 28.7773 22.4641C29.3293 20.3774 29.3333 16.0481 29.3333 16.0481C29.3333 16.0481 29.36 11.6948 28.7907 9.60678ZM13.328 20.0094L13.3347 12.0094L20.2773 16.0161L13.328 20.0094Z" fill="#144B63"/>
</svg>
