<svg width="591" height="579" viewBox="0 0 591 579" fill="none" xmlns="http://www.w3.org/2000/svg">
<path d="M263.432 52.9995C263.025 49.7725 262.202 46.6122 260.983 43.5978C260.826 43.0278 260.554 42.4965 260.183 42.0376C259.811 41.5789 259.348 41.2028 258.824 40.9332C258.122 40.7503 257.388 40.7422 256.682 40.9092L245.685 42.5955C244.764 42.6377 243.883 42.9809 243.176 43.5727C241.743 45.0825 243.154 47.5134 243.11 49.5961C243.06 51.9382 240.984 53.8392 238.732 54.4681C236.435 54.9336 234.064 54.9042 231.777 54.3817L216.4 51.9867C220.928 50.5377 224.96 47.8416 228.033 44.2063C230.058 41.8038 231.134 37.3183 228.209 36.1805C227.34 35.9415 226.434 35.8686 225.538 35.9655C218.571 36.0198 213.088 30.1899 206.566 27.7344C202.391 26.2646 197.861 26.1552 193.621 27.4221C189.38 28.6888 185.648 31.267 182.958 34.7878L191.149 35.1836C191.92 35.1411 192.684 35.3454 193.333 35.7669C195.128 37.2452 192.895 40.0847 193.148 42.3995C193.477 45.4069 197.461 46.0491 200.465 46.3531C203.467 46.6573 207.279 49.103 205.834 51.7594C190.737 56.9706 175.377 41.5727 159.523 43.4682C155.511 43.9478 151.722 45.5277 147.804 46.521C123.873 52.5892 99.1335 36.3985 74.6869 39.8274C69.2522 40.7559 63.9109 42.1677 58.726 44.0463C55.3987 45.1412 51.9283 46.3245 49.5107 48.8638C47.0933 51.4031 46.1731 55.7456 48.4634 58.4008C42.1509 58.9218 35.7962 58.3163 29.6948 56.6127C31.3448 57.532 32.7173 58.8794 33.6686 60.5136C34.6198 62.1477 35.1144 64.0085 35.1008 65.9005C25.2445 67.5112 15.6493 70.4435 6.57318 74.6184C8.26714 77.4415 10.2457 80.0831 12.4777 82.5014L0 90.5355C4.21555 91.6 6.3951 97.3611 3.94362 100.959C8.31467 99.0105 11.0236 93.9687 15.6978 92.9466C18.7599 92.277 21.8757 93.5325 24.7806 94.7119C27.6856 95.8912 30.8785 97.0348 33.8857 96.1497C36.8929 95.2645 39.1109 91.3565 37.2002 88.8666C50.0538 85.1079 63.3378 83.0279 76.7227 82.6781C77.7554 82.5481 78.8027 82.7474 79.7159 83.2474C81.4584 84.4588 81 87.0757 80.9062 89.199C80.8122 91.3223 82.4634 94.1129 84.3569 93.1559C82.1292 95.092 84.0338 98.7367 86.1709 100.773C88.3081 102.808 90.8842 105.618 89.5758 108.266C89.2342 108.957 88.6551 109.51 88.3264 110.208C87.3565 112.266 88.8965 114.667 90.7129 116.034C92.5292 117.401 94.7542 118.356 96.016 120.249C97.2776 122.143 96.7047 125.456 94.4484 125.721L88.0355 117.56C85.8445 119.837 84.3425 122.69 83.7035 125.788C90.5038 131.36 91.5267 142.7 85.8335 149.403C82.924 152.829 78.7868 154.911 75.1757 157.583C71.5647 160.255 68.2233 164.06 68.2325 168.558C68.2482 176.33 67.6144 183.551 70.5204 190.757C75.8788 204.043 82.0652 216.98 89.0433 229.488C90.8757 232.772 93.244 236.372 96.9562 236.939C92.2647 225.492 88.0415 213.867 84.2864 202.064C86.7323 202.074 89.5586 202.268 90.9923 204.254C92.1795 205.899 91.9244 208.134 92.2934 210.13C92.7625 212.064 93.5449 213.907 94.6095 215.587L117.013 255.583C118.87 258.898 121 262.458 124.549 263.799C126.819 264.658 129.444 264.497 131.533 265.733C133.17 266.701 134.273 268.421 135.942 269.333C140.661 271.914 147.224 266.965 151.634 270.045C152.895 270.927 153.698 272.327 154.86 273.334C158.933 276.871 165.615 274.505 170.317 277.142C173.347 278.843 174.918 282.241 176.534 285.322C180.583 293.038 187.135 300.598 195.812 301.213C198.537 301.405 201.322 300.888 203.987 301.495C206.651 302.103 209.274 304.433 208.846 307.138C208.112 311.775 210.398 316.853 209.784 321.507C208.667 329.985 196.668 333.711 195.637 342.201C195.411 344.059 195.764 345.977 195.323 347.797C194.781 350.027 193.11 351.843 192.517 354.059C191.391 358.259 194.393 362.44 197.692 365.266C200.991 368.092 204.925 370.529 206.729 374.483C208.634 378.664 207.699 383.54 208.319 388.094C209.672 398.037 218.241 405.409 227.06 410.162C229.747 411.61 232.632 413.012 234.371 415.525C236.64 418.803 236.414 423.126 237.173 427.044C239.029 436.638 247.089 444.546 247.316 454.316C247.48 461.261 243.628 467.56 241.327 474.114C239.17 480.392 238.389 487.063 239.039 493.671C239.687 500.28 241.752 506.67 245.088 512.406C246.809 515.318 248.869 518.065 250.086 521.224C252.259 526.859 251.554 533.264 253.557 538.962C256.206 546.496 263.485 552.718 262.789 560.676C266.093 567.553 273.389 570.932 280.725 572.978L293.875 576.648C296.392 577.349 299.024 578.058 301.588 577.548C304.151 577.04 306.598 574.907 306.533 572.289C300.085 570.83 293.428 569.281 288.113 565.342C282.798 561.403 279.156 554.391 281.174 548.081C282.108 545.157 284.098 541.778 282.207 539.36C281.124 537.977 279.142 537.614 277.921 536.353C276.016 534.382 276.671 531.074 278.04 528.698C279.41 526.323 281.389 524.2 281.943 521.515C282.222 520.011 282.036 518.457 281.408 517.064C280.782 515.669 279.744 514.501 278.437 513.714C280.875 512.792 283.093 511.366 284.945 509.528C286.658 507.57 287.447 504.551 286.101 502.323C290.1 502.831 294.82 503.08 297.444 500.016C299.54 497.566 299.397 493.908 298.569 490.79C297.739 487.673 296.341 484.645 296.296 481.42C305.52 481.859 314.764 481.545 323.936 480.482C322.61 476.003 319.596 472.22 315.533 469.933C319.687 469.228 323.472 464.244 324.785 460.232C326.097 456.219 325.763 451.848 324.95 447.705C324.64 446.637 324.597 445.51 324.826 444.423C325.295 442.928 326.759 442.017 328.115 441.236L348.735 429.367C349.964 428.75 351.08 427.924 352.032 426.928C354.193 424.384 353.872 420.546 352.767 417.395C351.659 414.244 349.888 411.282 349.462 407.968C348.188 398.06 358.77 390.953 362.341 381.625C363.743 377.966 364.028 373.987 364.3 370.076C364.59 365.876 364.612 360.997 361.394 358.29C358.309 355.696 353.489 356.275 350.263 353.86C347.303 351.648 346.282 347.351 343.049 345.563C340.112 343.94 336.432 344.973 333.166 344.209C327.416 342.865 323.798 336.224 317.928 335.609C314.614 335.262 310.865 336.884 308.15 334.952C305.757 333.248 305.662 329.822 305.206 326.917C304.408 322.401 302.247 318.237 299.017 314.99C295.785 311.742 291.64 309.563 287.135 308.749C283.721 308.199 280.003 308.408 277.097 306.528C274.153 304.621 272.805 301.056 270.494 298.416C266.769 294.165 260.902 292.654 255.406 291.36L233.05 286.093C229.082 285.158 223.967 284.662 221.837 288.145C221.207 289.472 220.761 290.879 220.511 292.327C219.712 294.946 218.107 297.245 215.924 298.89C213.74 300.537 211.093 301.448 208.362 301.491C206.487 298.289 203.452 295.934 199.889 294.922C197.621 294.289 195.195 294.218 193.033 293.287C191.856 292.711 190.808 291.9 189.954 290.903C189.101 289.908 188.457 288.748 188.068 287.495C187.676 286.242 187.543 284.921 187.68 283.615C187.814 282.31 188.214 281.045 188.856 279.899C190.144 277.598 190.642 274.938 190.272 272.327C189.901 269.715 188.683 267.297 186.807 265.448C183.005 262.028 177.505 261.201 172.408 261.544C171.073 258.624 173.306 255.33 175.712 253.208C178.117 251.087 181.037 249.001 181.561 245.833C182.385 240.848 176.041 237.063 171.223 238.548C166.405 240.034 163.33 244.725 161.297 249.348C160.131 252 159.14 254.793 157.3 257.029C155.461 259.267 152.498 260.868 149.696 260.151C145.729 259.134 144.197 254.411 143.319 250.403C142.141 245.024 140.956 239.573 141.203 234.071C141.45 228.572 143.3 222.925 147.347 219.201C153.941 213.134 164.057 213.729 172.958 214.696C170.854 212.322 171.374 208.321 173.623 206.086C174.811 205.028 176.238 204.276 177.781 203.898C179.324 203.517 180.935 203.521 182.477 203.906C185.158 204.465 187.574 205.913 189.335 208.016C191.865 211.107 192.584 215.279 194.495 218.786C196.407 222.294 200.705 225.286 204.223 223.404C207.261 221.779 207.744 217.555 206.989 214.187C206.232 210.82 204.626 207.544 204.899 204.103C205.423 197.537 212.214 193.585 218.207 190.88C224.199 188.177 231.063 184.538 232.011 178.021C232.044 176.745 232.284 175.482 232.724 174.284C233.388 173.224 234.312 172.354 235.407 171.755C252.897 160.169 270.68 148.443 290.671 142.113C291.71 141.783 291.833 142.149 292.893 141.891C294.376 141.032 293.394 138.655 291.971 137.697C290.55 136.74 288.648 136.005 288.287 134.327C288.022 133.093 288.748 131.881 288.936 130.633C289.4 127.566 285.738 124.734 282.895 125.96C281.289 123.829 284.467 121.352 287.037 120.643C294.751 118.515 302.671 117.218 310.661 116.775C311.584 116.628 312.529 116.789 313.35 117.233C314.691 118.165 314.52 120.302 313.569 121.632C312.618 122.961 311.139 123.796 309.954 124.922C308.659 126.186 307.735 127.782 307.283 129.536C306.833 131.291 306.871 133.136 307.393 134.87C311.565 136.996 316.098 139.186 320.718 138.436C325.338 137.687 329.439 132.485 327.268 128.33C325.245 124.461 319.171 123.589 318.126 119.348C316.904 114.384 323.916 109.968 322.336 105.105C321.644 102.976 319.527 101.722 317.902 100.184C315.983 98.2988 314.677 95.8758 314.157 93.2331C313.636 90.5906 313.926 87.8521 314.986 85.3772C312.339 85.8441 309.619 85.6678 307.053 84.8632C304.489 84.0587 302.152 82.6494 300.243 80.7535C296.717 77.1869 293.904 71.5607 288.898 71.7203C284.302 71.8666 280.344 77.2394 276.047 75.6002C274.99 75.197 273.876 74.3762 272.851 74.8572C272.517 75.0757 272.234 75.3676 272.029 75.7112C271.822 76.0548 271.696 76.4409 271.66 76.8403C270.568 82.0723 272.446 88.0335 269.601 92.5546C266.505 97.4743 259.343 98.1564 255.591 102.593C253.552 105.001 252.762 108.246 250.89 110.785C249.017 113.324 245.042 114.938 242.795 112.726C243.9 110.45 244.202 107.866 243.65 105.396C243.1 102.926 241.729 100.716 239.763 99.1279C237.676 97.7633 235.428 96.6669 233.069 95.864C230.432 94.7456 227.924 93.3448 225.589 91.6861C224.418 90.9787 223.468 89.9591 222.844 88.7415C222.349 87.2167 222.416 85.5648 223.032 84.0849C224.17 80.8102 226.181 77.9097 228.845 75.6963C231.51 73.4832 234.728 72.0414 238.149 71.5265C241.141 71.1186 244.625 71.2622 246.604 68.9772C247.653 67.768 248.203 65.9399 249.724 65.4489C250.697 65.2529 251.707 65.3777 252.602 65.8043L263.772 69.7446C265.019 70.3084 266.389 70.5358 267.752 70.4041C268.426 70.313 269.042 69.9694 269.475 69.4424C269.908 68.9155 270.125 68.244 270.083 67.5627C269.726 65.7037 266.872 64.8117 267.133 62.9366C267.278 62.3289 267.604 61.7798 268.067 61.3617C272.098 57.0617 277.028 53.7082 282.503 51.5412C287.979 49.3741 293.864 48.4472 299.74 48.8266C301.149 51.1473 298.919 53.8952 297.063 55.8761C295.209 57.8571 293.718 61.3966 295.961 62.9215C296.88 63.3918 297.903 63.6226 298.936 63.5927C301.685 63.9658 304.358 64.7781 306.852 65.999C310.711 67.6825 314.496 69.5244 318.207 71.5248C317.88 69.0721 317.568 66.4883 318.495 64.195C319.423 61.9016 322.058 60.1029 324.36 60.996C326.58 61.8567 327.718 64.8016 330.082 65.0714C333.237 65.4314 334.48 60.7619 333.164 57.8676C331.847 54.9733 329.237 52.5498 329.02 49.376C328.874 47.235 329.686 44.5795 327.98 43.2831C327.373 42.8938 326.683 42.6515 325.966 42.5755L283.357 34.717C280.827 34.2503 277.171 34.6081 277.059 37.184C276.997 38.622 278.278 40.0445 277.711 41.3665C277.106 42.7775 275.114 42.6486 273.665 43.1476C271.416 43.922 270.287 46.5986 270.504 48.9723C270.899 51.3308 271.81 53.5725 273.172 55.5363C270.401 54.3746 266.205 54.1612 263.432 52.9995Z" fill="#F2F7FB"/>
<path d="M229.435 16.7495C226.746 15.8584 223.852 15.8169 221.14 16.6306C218.429 17.4445 216.034 19.0741 214.278 21.2987C213.576 22.2246 212.986 23.5008 213.574 24.5033C214.416 25.9406 216.561 25.3728 218.144 24.8588C220.469 24.0262 222.999 23.9657 225.361 24.6861C226.846 25.1974 228.176 26.1006 229.668 26.5925C230.394 26.8969 231.189 26.9975 231.968 26.8834C232.747 26.7693 233.48 26.4449 234.089 25.9449C235.114 24.8984 235.177 23.2713 235.179 21.8055C235.25 21.315 235.212 20.8149 235.065 20.3415C234.919 19.8681 234.669 19.4335 234.332 19.0693C233.736 18.7228 233.065 18.5238 232.375 18.4891C230.832 18.2027 229.436 17.3855 228.429 16.1783" fill="#F2F7FB"/>
<path d="M244.799 12.4617C244.197 12.4289 243.598 12.5517 243.057 12.8183C242.517 13.0848 242.055 13.4862 241.714 13.9838C241.374 14.4815 241.165 15.0586 241.112 15.6597C241.058 16.2608 241.16 16.8657 241.407 17.4161C243.254 17.921 245.182 18.047 247.078 17.7868C248.025 17.6396 248.906 17.2151 249.612 16.5668C250.317 15.9185 250.816 15.0754 251.043 14.1437C248.81 14.5509 246.506 14.1099 244.581 12.9067" fill="#F2F7FB"/>
<path d="M296.346 5.30191C291.319 6.37289 286.437 8.03512 281.8 10.2541C283.986 11.0962 285.845 12.6199 287.101 14.6005C288.358 16.5811 288.946 18.914 288.78 21.2552C288.584 22.1541 288.606 23.0871 288.846 23.9751C289.381 25.2731 290.929 25.7602 292.29 26.0934C294.735 26.8392 297.287 27.1657 299.841 27.0594C301.119 26.9925 302.359 26.6072 303.451 25.9389C304.542 25.2703 305.45 24.3396 306.093 23.2311C306.462 22.1788 306.896 21.1503 307.393 20.1513C310.654 15.1721 320.346 21.1926 323.848 16.3802C325.081 14.685 324.969 12.1331 326.576 10.7898C327.409 10.2046 328.373 9.83579 329.382 9.71671C336.425 8.31423 343.54 7.2987 350.694 6.67468C354.084 6.37904 358.502 5.15918 358.53 1.74925C345.763 -0.763844 332.524 1.02105 320.874 6.82644C316.676 8.93364 311.123 13.3662 307.081 10.5726C305.567 9.52659 305.641 6.71001 303.558 5.53381C301.428 4.3313 298.607 4.82037 296.346 5.30191Z" fill="#F2F7FB"/>
<path d="M338.099 13.1272L344.092 14.2814C342.988 14.2324 341.888 14.4198 340.862 14.831C339.837 15.2423 338.911 15.8679 338.146 16.6662C337.382 17.4645 336.795 18.417 336.426 19.4604C336.059 20.5037 335.916 21.6138 336.009 22.7167C341.622 24.5957 347.741 22.7671 353.652 23.0169C359.566 23.2666 366.443 27.4992 365.434 33.343C365.129 35.1099 364.112 36.8756 364.641 38.5885C365.012 39.7891 366.069 40.6408 366.664 41.7466C367.907 44.0505 366.914 46.9649 365.345 49.0593C363.775 51.1537 361.668 52.8249 360.29 55.0506C356.865 60.5866 358.81 67.7433 360.851 73.9279C361.44 76.2648 362.53 78.4453 364.044 80.3187C367.067 83.54 371.993 83.8202 376.406 83.8847C379.617 83.9317 383.295 83.7727 385.326 81.2792C387.977 78.0238 386.123 72.9447 387.868 69.124C389.453 65.6539 393.492 64.1653 397.151 63.1096C403.856 61.1754 410.687 59.5309 417.025 56.6093C424.895 52.9814 432.25 47.3276 440.899 46.8608C443.327 46.7298 445.814 47.0167 448.15 46.3504C450.489 45.684 452.708 43.6585 452.532 41.2293C452.38 39.1539 450.628 37.6296 449.259 36.0651C447.89 34.5005 446.815 32.0944 448.073 30.439L470.746 26.1947C469.139 21.8051 467.887 16.0239 471.579 13.1667C472.912 12.1358 474.696 11.7237 475.83 10.4774C477.763 8.35321 476.793 4.69408 474.559 2.88759C472.328 1.08107 469.31 0.6617 466.451 0.423681C456.509 -0.403793 446.51 0.142985 436.549 0.690187C417.08 1.75985 397.608 2.82951 378.137 3.89918C374.219 4.1145 369.692 3.78554 366.098 5.12576C363.055 6.26037 360.89 8.3431 357.41 9.07485C350.985 10.4257 343.912 9.51162 338.099 13.1272Z" fill="#F2F7FB"/>
<path d="M445.467 60.6059C444.857 60.5089 444.233 60.651 443.722 61.0023C443.386 61.3739 443.186 61.8496 443.155 62.3506C442.768 64.5619 443.229 66.838 444.445 68.7231C445.065 69.6479 445.921 70.3898 446.923 70.8713C447.925 71.3528 449.037 71.5567 450.144 71.4619C452.843 71.1169 454.831 68.8095 457.313 67.6835C461.136 65.9498 477.376 63.247 466.142 57.1645C462.271 55.0684 459.77 56.9188 456.718 58.2992C453.247 60.0791 449.358 60.8765 445.467 60.6059Z" fill="#F2F7FB"/>
<path d="M543.859 9.69319C542.547 10.2303 541.45 11.1876 540.738 12.4156C540.41 13.0392 540.334 13.7652 540.525 14.4435C540.717 15.1217 541.162 15.7003 541.765 16.0596C542.255 16.2376 542.776 16.3202 543.297 16.3028L548.629 16.4625C550.895 16.5304 553.725 17.014 554.334 19.2024C554.787 20.8272 553.775 22.9152 554.996 24.0763C555.52 24.483 556.15 24.7293 556.81 24.7857C558.567 25.238 560.402 25.2973 562.184 24.9595C566.064 23.9163 564.025 21.5426 565.248 19.4288C567.117 16.1948 566.793 18.1526 570.089 16.299C572.522 14.9302 575.667 12.4471 573.636 8.9584C570.104 2.89153 549.07 7.08688 543.859 9.69319Z" fill="#F2F7FB"/>
<path d="M575.757 197.449C576.154 199.575 576.542 201.815 575.847 203.863C575.152 205.913 572.963 207.624 570.897 206.997C569.294 206.509 568.368 204.893 567.229 203.661C560.897 196.81 546.611 200.776 542.698 192.301C541.103 188.842 542.188 184.698 541.098 181.045C540.412 178.935 539.044 177.113 537.213 175.866C535.38 174.618 533.186 174.016 530.975 174.153C528.959 174.445 526.997 175.033 525.15 175.897C512.783 180.861 499.8 184.115 486.557 185.57C484.039 185.724 481.551 186.179 479.14 186.924C473.703 188.899 469.988 193.951 467.343 199.107C464.699 204.263 462.747 209.845 459.203 214.425C455.476 219.239 450.256 222.611 445.386 226.256C443.51 227.467 441.948 229.109 440.828 231.043C439.773 233.216 439.832 235.743 439.914 238.157L440.909 267.488C441.037 271.261 441.197 275.168 442.882 278.544C444.986 282.761 449.142 285.521 452.026 289.246C454.968 293.072 456.501 297.801 456.364 302.632C456.302 304.573 456.111 306.87 457.62 308.088C458.537 308.685 459.612 308.994 460.705 308.979L500.293 312.226C507.256 312.797 514.973 313.737 519.519 319.053C521.665 321.563 523.389 325.172 526.676 325.441C528.085 325.557 529.456 324.976 530.867 324.864C534.424 324.582 537.549 327.289 539.522 330.268C542.507 334.812 543.861 340.236 543.364 345.653C543.04 349.054 541.988 352.359 541.762 355.767C540.9 368.733 551.868 380 552.08 392.994C552.206 400.637 548.584 407.778 545.054 414.555C550.752 423.204 546.087 434.722 548.355 444.833C550.507 454.427 558.486 461.937 560.476 471.565C561.387 475.973 561.439 481.396 565.317 483.667C567.019 484.499 568.906 484.877 570.794 484.766C582.195 484.901 593.463 482.329 603.68 477.262C608.476 474.877 613.446 471.316 614.283 466.017C614.959 461.745 612.796 456.964 614.997 453.241C617.59 448.855 624.235 449.202 628.051 445.83C634.242 440.356 629.413 429.92 631.923 422.039C634.177 414.955 641.939 411.19 645.786 404.832C647.3 402.097 648.386 399.145 649.007 396.081C650.77 388.756 651.866 381.286 652.286 373.763C652.387 369.191 652.724 364.628 653.293 360.091C657.44 334.264 682.916 316.97 691.189 292.158C691.978 289.789 692.349 286.633 690.245 285.291C688.999 284.695 687.584 284.547 686.239 284.871L667.991 287.177C665.725 287.464 663.322 287.732 661.241 286.788C659.159 285.844 657.668 283.205 658.771 281.2C661.87 275.575 655.495 268.464 652.663 262.698C645.034 247.171 635.951 232.405 625.533 218.603C624.866 217.892 624.449 216.983 624.343 216.014L629.524 216.186C627.775 209.899 624.89 203.02 618.796 200.719C615.36 199.423 611.558 199.871 607.893 200.071C597.398 200.647 586.146 199.058 575.757 197.449Z" fill="#F2F7FB"/>
<path d="M607.902 55.7615C610.647 58.6845 613.726 61.7838 617.699 62.2934C624.718 63.1933 629.763 55.919 632.978 49.6006C633.097 51.2115 633.837 52.7122 635.044 53.7836C636.249 54.8552 637.826 55.4129 639.434 55.3383C641.168 55.0462 642.821 54.3982 644.291 53.4352C658.197 45.8186 673.773 41.7831 689.621 41.691C689.469 40.4879 689.766 39.2709 690.457 38.2749C691.147 37.2788 692.18 36.5744 693.36 36.2973C696.581 35.6571 699.483 38.4491 701.037 41.3493C702.593 44.2493 703.56 47.611 706.03 49.7816C708.499 51.9524 713.281 51.8579 714.256 48.7143C715.192 45.6965 712.055 43.1228 709.449 41.3434C706.844 39.5642 704.097 36.271 705.85 33.6453C719.165 30.6912 732.563 27.7262 746.188 27.1391C748.508 27.22 750.819 26.8209 752.978 25.9667C755.056 24.9448 756.708 22.6251 756.149 20.3741C753.176 21.0746 750.061 20.8717 747.204 19.7913C744.346 18.7111 741.874 16.8022 740.102 14.3082C759.008 12.7447 779.116 11.4119 795.87 20.3274C797.88 24.6532 787.633 28.2521 790.375 32.1537C791.25 33.3982 793.002 33.544 794.519 33.5724C806.163 33.7889 817.872 34.0013 829.384 32.2398C833.591 31.596 837.841 30.687 842.064 31.2092C849.098 32.0787 855.115 36.783 862.035 38.3167C864.853 38.941 868.011 38.9623 870.385 37.3201C872.76 35.678 873.781 31.9391 871.836 29.8045C878.351 23.4037 889.167 24.99 897.762 28.0544C906.359 31.1188 914.503 36.0607 923.602 36.7437C930.126 37.2335 936.741 35.4746 943.189 36.5927C947.24 37.2953 951.011 39.1016 954.971 40.2113C962.458 42.3103 970.381 41.8673 978.157 41.9682C997.995 42.2361 1017.62 46.1439 1036.05 53.4983C1038.45 54.2809 1040.65 55.5818 1042.49 57.3095C1044.2 59.1503 1045.08 62.0109 1043.93 64.2492L1024.88 61.4596C1026.67 65.0007 1031.31 65.6042 1035.09 66.8258C1038.86 68.0472 1042.77 72.2207 1040.5 75.479C1036.41 74.1751 1032.71 78.2691 1030.65 82.0357C1028.58 85.8025 1026.07 90.3137 1021.79 90.543C1017.95 90.7485 1013.32 87.4766 1010.82 90.398C1014.27 94.7632 1017.23 99.5004 1019.63 104.522C1022.1 109.677 1023.86 116.173 1020.52 120.811C1020 121.639 1019.2 122.258 1018.27 122.562C1015.55 123.253 1013.77 119.911 1011.82 117.886C1009.36 115.334 1005.63 114.611 1002.3 113.414C998.963 112.217 995.448 109.863 995.188 106.322C995.026 104.119 996.186 102.07 997.042 100.034C998.478 96.6023 999.106 92.8846 998.877 89.1697C998.69 86.181 997.854 83.0722 995.712 80.984C993.57 78.896 989.873 78.2335 987.574 80.1461C986.502 81.0384 985.643 82.4659 984.249 82.5191C981.787 82.6137 979.898 78.3127 977.917 79.7807C978.15 81.3451 977.826 82.9415 977.003 84.291C971.093 89.4421 962.015 87.263 954.396 89.0826C950.773 90.1217 947.305 91.6399 944.082 93.5969C942.877 94.1135 941.851 94.9766 941.135 96.0771C940.183 97.9292 941.232 100.301 942.908 101.533C944.686 102.625 946.683 103.309 948.756 103.534C958.044 105.296 967.468 108.026 974.801 114.005C982.133 119.984 986.941 129.868 984.622 139.052L966.306 121.511C967.001 128.876 967.396 136.261 967.491 143.667C967.608 145.113 967.41 146.567 966.909 147.929C965.604 150.819 962.064 151.792 958.963 152.43C958.101 152.594 957.283 152.939 956.562 153.443C955.843 153.947 955.236 154.597 954.786 155.352C954.334 156.107 954.048 156.949 953.945 157.823C953.841 158.697 953.922 159.582 954.184 160.422C955.286 164.022 958.035 166.828 960.549 169.624C963.065 172.421 965.54 175.599 965.87 179.35C966.199 183.1 963.376 187.328 959.629 187.067C956.788 186.868 954.679 184.321 953.469 181.737C952.256 179.155 951.535 176.277 949.714 174.082C944.203 167.439 931.826 170.285 926.889 163.204C925.63 164.634 924.757 166.364 924.354 168.227C923.949 170.091 924.028 172.027 924.58 173.852C926.877 172.411 930.02 173.75 931.747 175.845C933.471 177.938 934.285 180.622 935.641 182.974C937.47 186.148 940.38 188.961 940.635 192.617C940.568 193.999 940.59 195.384 940.706 196.763C941.157 198.979 943.027 200.569 944.322 202.42C947.335 206.727 947.186 212.647 945.244 217.535C943.301 222.422 939.812 226.506 936.355 230.466C930.317 237.383 924.157 244.258 917.001 250.002C914.957 251.64 912.777 253.253 911.506 255.543C910.233 257.835 910.168 261.051 912.124 262.795C910.725 262.864 908.216 263.554 906.817 263.625C906.326 258.001 906.219 252.351 906.498 246.713C900.978 244.058 895.035 251.17 895.748 257.264C896.46 263.358 900.859 268.25 903.991 273.523C906.281 277.379 907.983 281.874 907.217 286.296C906.453 290.718 902.515 294.796 898.055 294.407C890.96 293.786 887.993 283.579 880.967 282.41C880.348 282.265 879.698 282.329 879.118 282.593C878.075 283.167 877.894 284.567 877.835 285.758C877.547 291.602 877.299 297.678 879.575 303.068C882.905 310.951 891.509 317.572 889.705 325.939C879.982 321.411 874.928 310.482 872.632 299.986C870.337 289.491 869.954 278.471 865.841 268.549C862.716 272.562 856.151 269.245 853.296 265.035C850.59 261.042 848.924 256.426 846.299 252.382C843.673 248.336 839.651 244.715 834.842 244.492C829.799 244.258 825.426 247.727 821.58 251.004C818.417 253.699 815.17 256.499 813.322 260.225C810.631 265.645 811.335 272.035 811.206 278.088C811.066 284.631 809.681 291.534 805.232 296.325C800.783 301.114 792.569 302.784 787.661 298.467C785.098 296.213 783.858 292.844 782.753 289.612C777.426 274.031 772.991 258.158 769.466 242.07C768.641 245.743 765.423 250.475 762.35 248.311C761.66 247.731 761.102 247.01 760.712 246.196C754.978 236.458 744.362 230.616 733.636 227.115C722.909 223.613 711.624 221.98 701.017 218.131C695.072 215.972 689.395 213.138 684.096 209.683C682.745 211.672 681.956 213.99 681.812 216.392C681.669 218.794 682.178 221.19 683.283 223.326C685.636 227.502 690.961 229.918 695.519 228.458C697.873 227.704 699.863 226.066 702.2 225.255C704.536 224.446 707.673 224.844 708.696 227.101C709.674 229.26 708.196 231.873 708.929 234.128C710.046 237.564 715.214 237.829 717.022 240.954C718.367 243.28 717.26 246.369 715.34 248.244C713.419 250.121 710.858 251.151 708.515 252.456C700.908 256.696 695.5 263.931 688.854 269.56C682.207 275.191 672.829 279.301 664.907 275.689C666.795 266.107 655.407 259.072 653.312 249.532C652.622 246.393 652.979 243.057 651.994 239.998C650.57 235.566 646.648 232.521 643.43 229.165C639.528 225.048 636.489 220.191 634.49 214.878C632.492 209.565 631.576 203.905 631.795 198.232C631.969 194.29 632.692 190.282 631.795 186.44C630.898 182.597 627.725 178.878 623.791 179.053C614.807 179.45 603.489 180.119 598.774 172.443C597.093 169.704 596.36 165.691 598.793 163.592C600.509 162.112 603.041 162.251 605.294 162.473L625.537 164.469C630.272 164.936 635.39 165.321 639.453 162.841C643.516 160.36 645.275 153.775 641.514 150.856C638.765 148.724 633.84 148.84 633.042 145.449C632.376 142.625 635.494 139.421 633.811 137.061C632.602 135.369 629.888 135.839 628.242 137.107C626.597 138.376 625.402 140.231 623.562 141.191C620.332 142.876 616.471 141.272 612.996 140.183C609.521 139.093 604.862 139 603.177 142.235C601.292 145.853 604.85 150.594 602.978 154.219C600.504 159.012 592.128 156.284 588.653 160.407C584.668 165.138 591.366 172.192 590.022 178.235C588.306 179.087 586.399 179.48 584.487 179.371C582.574 179.263 580.722 178.66 579.111 177.622C577.528 176.541 576.266 175.051 575.459 173.311C574.653 171.57 574.333 169.642 574.533 167.733C574.866 165.014 576.28 162.238 575.331 159.669C574.565 157.592 572.484 156.355 570.551 155.284L550.879 144.389C549.053 147.785 551.361 151.995 554.249 154.545C557.136 157.095 560.754 159.016 562.651 162.373C563.851 164.698 564.12 167.395 563.403 169.913C562.685 172.43 561.037 174.58 558.793 175.919C558.512 176.114 558.191 176.244 557.855 176.305C557.519 176.363 557.174 176.348 556.843 176.26C556.529 176.075 556.255 175.829 556.037 175.537C555.822 175.243 555.665 174.91 555.579 174.555C552.107 165.654 546.896 156.876 538.565 152.226C530.234 147.576 518.262 148.532 512.799 156.366C511.5 158.226 510.629 160.347 509.5 162.314C503.493 172.766 490.618 177.715 478.588 177.392C477.412 177.457 476.241 177.181 475.217 176.597C473.271 175.252 473.359 172.396 473.658 170.047L474.92 160.077C475.174 158.075 475.541 155.863 477.122 154.613C479.35 152.851 482.565 153.963 485.403 153.922C487.554 153.821 489.621 153.06 491.325 151.742C493.029 150.424 494.288 148.613 494.93 146.554C495.502 144.474 495.499 142.278 494.919 140.2C494.338 138.123 493.203 136.244 491.636 134.765C490.335 133.541 488.59 132.002 489.277 130.352C489.551 129.895 489.922 129.504 490.363 129.207C490.805 128.909 491.305 128.712 491.829 128.629C496.928 127.145 502.314 126.756 507.327 125.006C512.34 123.255 517.202 119.673 518.388 114.488C518.752 112.898 518.917 110.973 520.342 110.185C521.058 109.883 521.825 109.726 522.599 109.723C525.317 109.336 527.792 107.943 529.537 105.818C531.28 103.694 532.169 100.992 532.024 98.2443C534.426 96.5619 537.792 97.7994 540.117 99.5889C542.44 101.378 544.492 103.743 547.32 104.514C552.59 105.952 557.684 101.275 563.146 101.253C565.443 101.244 567.819 102.058 569.98 101.278C572.172 100.486 573.479 98.3008 575.16 96.6863C576.842 95.0717 579.792 94.0869 581.345 95.8263L580.022 86.0121C582.684 86.6862 585.461 86.7816 588.163 86.292C590.864 85.8023 593.432 84.739 595.689 83.1733L578.604 77.3875C578.009 77.2387 577.459 76.9445 577.006 76.5314C575.764 75.1909 576.997 73.1018 578.008 71.5779C580.424 67.9325 580.829 61.9275 576.856 60.1125C574.143 58.8738 571.03 60.3607 568.426 61.8155L555.956 68.7844C555.56 71.16 558.459 72.5064 560.256 74.1067C561.342 75.0747 562.111 76.3498 562.461 77.7641C562.813 79.1784 562.728 80.666 562.22 82.0312C561.711 83.3965 560.802 84.5757 559.614 85.4141C558.424 86.2524 557.01 86.7106 555.555 86.7285C556.377 87.7984 556.948 89.0399 557.226 90.3609C557.502 91.6817 557.481 93.0483 557.16 94.3594L548.769 94.9642C547.827 95.1541 546.849 94.9626 546.047 94.4318C545.151 93.6332 545.271 92.2334 545.064 91.0488C544.563 88.1894 541.769 86.1853 538.917 85.6715C536.066 85.1576 533.15 85.8163 530.327 86.4665C529.128 86.899 527.811 86.8686 526.633 86.3811C525.959 85.9416 525.445 85.2925 525.172 84.533C523.934 81.5253 525.091 77.99 527.079 75.4178C529.068 72.8457 531.789 70.9654 534.233 68.824C540.077 63.6845 544.371 57.0093 546.63 49.5526C551.248 47.613 556.03 44.9776 560.649 43.0381C567.771 39.4246 575.757 37.8739 583.709 38.5604L599.35 38.8598C603.982 38.9484 608.738 39.062 613.02 40.8315C617.304 42.6011 621.067 46.4282 621.362 51.0611C621.451 51.5857 621.405 52.1242 621.231 52.6265C621.055 53.1286 620.755 53.5778 620.358 53.9321C619.754 54.2627 619.068 54.4176 618.382 54.3787C614.062 54.531 612.22 55.6095 607.902 55.7615Z" fill="#F2F7FB"/>
<path d="M483.222 104.893C483.833 104.314 484.272 103.576 484.493 102.762C484.714 101.948 484.705 101.089 484.471 100.28C482.982 99.7043 481.365 99.5567 479.799 99.8531C478.233 100.15 476.781 100.878 475.605 101.957C474.679 102.897 473.879 103.955 473.23 105.104C471.175 108.465 469.357 112.48 470.547 116.237C470.645 116.646 470.823 117.032 471.07 117.372C471.318 117.712 471.632 117.999 471.992 118.216C472.525 118.431 473.101 118.521 473.675 118.481C475.94 118.478 478.202 118.338 480.449 118.063C481.829 117.893 483.433 117.503 483.965 116.216C484.667 114.524 482.97 112.609 483.465 110.846C483.79 110.057 484.283 109.349 484.91 108.771C485.221 108.48 485.461 108.12 485.607 107.721C485.755 107.321 485.809 106.892 485.762 106.469C485.562 105.641 484.298 105.172 483.843 105.89" fill="#F2F7FB"/>
<path d="M494.964 89.6371C492.953 89.1741 490.879 89.0436 488.827 89.2507C488.371 89.2372 487.921 89.3397 487.518 89.5486C487.126 89.8378 486.843 90.2495 486.712 90.7186C486.278 92.1137 486.385 93.6213 487.011 94.9413C487.637 96.2612 488.735 97.2965 490.089 97.841C490.825 98.011 491.532 98.2955 492.182 98.6842C493.917 100.034 492.812 102.794 493.14 104.971C493.509 107.417 495.871 109.469 495.438 111.904C495.097 113.822 493.052 115.341 493.381 117.261C493.726 119.272 496.273 119.876 498.303 120.038C499.479 120.244 500.689 120.105 501.788 119.637C502.89 118.882 503.675 117.745 503.988 116.444C504.82 113.966 505.168 111.35 505.016 108.739C505.008 107.552 504.711 106.385 504.151 105.338C503.538 104.509 502.861 103.732 502.124 103.013C498.235 98.4798 502.329 91.7174 494.964 89.6371Z" fill="#F2F7FB"/>
</svg>
