<svg width="48" height="48" viewBox="0 0 48 48" fill="none" xmlns="http://www.w3.org/2000/svg">
<rect width="48" height="48" rx="24" fill="#1C6A8D"/>
<mask id="mask0_45_2298" style="mask-type:alpha" maskUnits="userSpaceOnUse" x="12" y="12" width="24" height="24">
<rect x="12" y="12" width="24" height="24" fill="#D9D9D9"/>
</mask>
<g mask="url(#mask0_45_2298)">
<path d="M18 32C17.1667 32 16.4583 31.7083 15.875 31.125C15.2917 30.5417 15 29.8333 15 29H13V18C13 17.45 13.196 16.9793 13.588 16.588C13.9793 16.196 14.45 16 15 16H29V20H32L35 24V29H33C33 29.8333 32.7083 30.5417 32.125 31.125C31.5417 31.7083 30.8333 32 30 32C29.1667 32 28.4583 31.7083 27.875 31.125C27.2917 30.5417 27 29.8333 27 29H21C21 29.8333 20.7083 30.5417 20.125 31.125C19.5417 31.7083 18.8333 32 18 32ZM18 30C18.2833 30 18.521 29.904 18.713 29.712C18.9043 29.5207 19 29.2833 19 29C19 28.7167 18.9043 28.4793 18.713 28.288C18.521 28.096 18.2833 28 18 28C17.7167 28 17.479 28.096 17.287 28.288C17.0957 28.4793 17 28.7167 17 29C17 29.2833 17.0957 29.5207 17.287 29.712C17.479 29.904 17.7167 30 18 30ZM15 27H15.8C16.0833 26.7 16.4083 26.4583 16.775 26.275C17.1417 26.0917 17.55 26 18 26C18.45 26 18.8583 26.0917 19.225 26.275C19.5917 26.4583 19.9167 26.7 20.2 27H27V18H15V27ZM30 30C30.2833 30 30.5207 29.904 30.712 29.712C30.904 29.5207 31 29.2833 31 29C31 28.7167 30.904 28.4793 30.712 28.288C30.5207 28.096 30.2833 28 30 28C29.7167 28 29.4793 28.096 29.288 28.288C29.096 28.4793 29 28.7167 29 29C29 29.2833 29.096 29.5207 29.288 29.712C29.4793 29.904 29.7167 30 30 30ZM29 25H33.25L31 22H29V25Z" fill="#F2F7FB"/>
</g>
</svg>
