<svg width="48" height="48" viewBox="0 0 48 48" fill="none" xmlns="http://www.w3.org/2000/svg">
<rect width="48" height="48" rx="24" fill="#1C6A8D"/>
<mask id="mask0_45_2317" style="mask-type:alpha" maskUnits="userSpaceOnUse" x="12" y="12" width="24" height="24">
<rect x="12" y="12" width="24" height="24" fill="#D9D9D9"/>
</mask>
<g mask="url(#mask0_45_2317)">
<path d="M32 19L31.05 16.95L29 16L31.05 15.05L32 13L32.95 15.05L35 16L32.95 16.95L32 19ZM20.5 19L19.55 16.95L17.5 16L19.55 15.05L20.5 13L21.45 15.05L23.5 16L21.45 16.95L20.5 19ZM32 30.5L31.05 28.45L29 27.5L31.05 26.55L32 24.5L32.95 26.55L35 27.5L32.95 28.45L32 30.5ZM17.1 33.7L14.3 30.9C14.1 30.7 14 30.4583 14 30.175C14 29.8917 14.1 29.65 14.3 29.45L25.45 18.3C25.65 18.1 25.8917 18 26.175 18C26.4583 18 26.7 18.1 26.9 18.3L29.7 21.1C29.9 21.3 30 21.5417 30 21.825C30 22.1083 29.9 22.35 29.7 22.55L18.55 33.7C18.35 33.9 18.1083 34 17.825 34C17.5417 34 17.3 33.9 17.1 33.7ZM17.85 31.6L25 24.4L23.6 23L16.4 30.15L17.85 31.6Z" fill="#F2F7FB"/>
</g>
</svg>
