<svg width="515" height="579" viewBox="0 0 515 579" fill="none" xmlns="http://www.w3.org/2000/svg">
<path d="M31.1261 6.6434L28.0306 7.0576C21.0464 7.99162 14.0224 8.93423 7.29688 11.0361C10.2078 12.1899 13.2636 12.9411 16.3764 13.2692C18.0905 13.3534 19.7926 13.5959 21.4637 13.9938C24.4333 14.8802 27.427 17.1691 30.2983 15.9966C32.078 15.2696 32.6575 13.4125 34.1319 12.4282C35.1511 11.7486 39.0105 10.6486 39.4434 9.96264C42.932 4.41713 33.8094 6.28468 31.1261 6.6434Z" fill="#F2F7FB"/>
<path d="M44.7258 20.7498C40.5887 23.068 36.7499 25.8851 33.2975 29.138C31.842 30.509 30.3555 32.214 30.4883 34.2113C30.6624 36.8657 33.4837 38.4053 35.9291 39.4425L45.8295 43.6435C47.0297 41.9469 45.9312 39.605 44.6896 37.9376C43.448 36.2705 41.9735 34.3414 42.5219 32.3351C43.1479 30.0456 45.9329 29.2654 48.2679 28.8708C52.0739 28.2282 62.3399 28.2797 61.1069 22.133C59.6531 14.8902 48.5456 18.6097 44.7258 20.7498Z" fill="#F2F7FB"/>
<path d="M42.7322 430.627C41.7906 433.362 41.7009 436.583 43.3306 438.97C45.1603 441.649 48.8214 442.648 51.9893 441.969C55.1434 441.129 57.9544 439.316 60.0272 436.789C61.9242 434.672 63.4832 432.274 64.6524 429.684C66.282 425.643 67.4323 421.424 68.079 417.115L71.152 400.939C71.8401 397.325 71.8125 386.241 65.1835 389.852C63.3728 390.839 59.1788 398.627 57.2818 400.836C53.8604 404.818 53.4069 408.679 51.6065 413.501C49.3508 419.542 44.8171 424.576 42.7322 430.627Z" fill="#F2F7FB"/>
<path d="M392.884 513.404C390.715 512.555 388.611 511.551 386.585 510.398C384.555 515.993 383.475 521.888 383.393 527.841L398.235 519.422C400.469 518.157 403 516.397 402.952 513.825C402.973 513.507 402.907 513.191 402.762 512.908C402.617 512.624 402.4 512.386 402.131 512.216C401.802 512.083 401.441 512.04 401.091 512.094C398.889 512.277 396.882 513.362 394.805 514.117C392.729 514.873 390.301 515.272 388.397 514.15" fill="#F2F7FB"/>
<path d="M471.192 518.4C469.564 518.846 467.973 519.418 466.433 520.113C463.027 521.85 460.709 525.15 457.643 527.438C454.709 529.626 451.179 530.829 447.713 531.997C446.692 532.901 447.161 534.721 448.268 535.515C449.458 536.192 450.824 536.5 452.188 536.398C455.791 536.477 459.585 536.512 462.739 534.768C464.517 533.613 466.179 532.289 467.705 530.817C471.394 527.733 475.823 525.697 480.208 523.732C481.803 523.127 483.279 522.244 484.566 521.121C487.32 518.4 487.515 514.204 483.541 513.277C480.332 512.529 474.25 517.41 471.192 518.4Z" fill="#F2F7FB"/>
<path d="M505.791 495.75C505.97 493.878 505.722 491.989 505.065 490.228C504.41 488.467 503.361 486.877 502.002 485.581C501.963 489.326 501.849 493.317 499.747 496.412C498.25 498.619 495.901 500.111 494.261 502.213C492.621 504.314 491.892 507.645 493.816 509.491C495.047 510.427 496.544 510.946 498.091 510.965C501.921 511.418 506.355 511.668 509.042 508.896C510.509 507.382 511.222 505.139 513.01 504.026C513.677 503.746 514.272 503.319 514.752 502.778C515.49 501.601 514.317 500.05 512.996 499.627C511.675 499.202 510.22 499.402 508.892 499C507.564 498.597 506.346 497.1 507.028 495.89" fill="#F2F7FB"/>
<path d="M444.295 358.437C442.286 358.926 440.205 359.049 438.153 358.8C434.742 358.171 432.088 355.596 429.334 353.484C422.789 348.489 414.832 345.703 406.608 345.525C399.127 345.383 391.576 347.416 384.228 345.998C384.707 348.674 386.992 350.682 389.43 351.875C391.869 353.067 394.559 353.667 397.008 354.837C400.931 356.726 404.044 359.972 405.773 363.975C406.562 365.821 407.058 367.829 408.253 369.44C410.695 372.734 415.325 373.458 419.413 373.189C424.74 372.838 430.305 371.301 435.261 373.291C439.051 374.813 441.766 378.139 444.932 380.724C448.098 383.312 452.556 385.23 456.191 383.365C452.416 382.14 449.129 379.738 446.811 376.507C444.495 373.277 443.269 369.39 443.312 365.413C446.877 365.741 457.146 365.615 456.593 359.542C456.124 354.396 447.358 357.882 444.295 358.437Z" fill="#F2F7FB"/>
<path d="M397.658 400.303C398.291 396.824 401.754 393.751 400.674 390.383C399.929 388.054 397.234 386.903 394.793 386.846C392.353 386.789 389.956 387.517 387.516 387.586C385.928 387.501 384.336 387.524 382.751 387.653C377.909 388.452 374.924 393.54 370.359 395.348C367.584 396.449 364.466 396.238 361.579 396.999C355.028 398.725 350.882 404.93 346.302 409.932C338.902 417.981 329.261 423.615 318.629 426.108C314.902 426.972 310.898 427.525 307.937 429.95C304.016 433.161 303.05 438.666 302.179 443.666C299.768 457.472 296.084 471.024 291.175 484.148L306.732 486.139C309.691 486.517 312.755 486.889 315.606 486.011C317.677 485.228 319.638 484.181 321.442 482.895C328.371 478.582 336.126 475.777 344.205 474.659C348.278 474.099 352.55 473.997 356.373 475.515C360.196 477.032 363.476 480.473 363.797 484.583C365.449 484.067 367.212 484.011 368.895 484.421C370.576 484.832 372.116 485.691 373.349 486.911C375.786 489.398 377.381 492.591 377.909 496.035C378.319 498.168 378.73 500.724 380.704 501.62C382.317 502.349 384.164 501.563 385.928 501.423C391.908 500.942 396.871 507.932 402.75 506.729C409.055 505.438 410.604 495.973 416.755 494.077C420.289 492.99 425.243 494.314 426.935 491.02C428.426 488.116 425.452 484.766 425.759 481.515C426.136 477.514 430.846 475.815 434.478 474.108C446.998 468.219 452.939 451.331 446.872 438.875C443.278 431.495 436.204 425.686 434.899 417.578C433.893 411.341 436.347 404.068 432.379 399.157C430.36 396.66 426.943 395.281 425.741 392.301C424.986 390.426 425.29 388.296 424.883 386.316C424.476 384.333 422.751 382.261 420.797 382.774C415.131 384.266 413.322 401.814 410.286 406.078C405.673 412.557 396.204 408.288 397.658 400.303Z" fill="#F2F7FB"/>
<path d="M292.894 365.067C290.958 364.523 288.842 363.987 286.986 364.765C285.13 365.543 284.046 368.273 285.536 369.628C297.188 369.174 308.913 368.721 320.465 370.308C333.777 372.135 346.95 376.661 360.321 375.33C352.684 373.071 344.921 371.267 337.071 369.922L323.982 367.416C320.471 366.68 316.923 366.13 313.354 365.771C305.887 365.152 300.235 367.131 292.894 365.067Z" fill="#F2F7FB"/>
<path d="M304.559 324.392C303.591 324.311 302.393 324.242 301.893 325.075C301.415 325.872 301.962 326.924 301.705 327.818C301.353 329.038 299.759 329.349 298.502 329.183C297.247 329.017 295.888 328.62 294.776 329.226C294.21 329.612 293.787 330.172 293.567 330.82C293.346 331.47 293.341 332.171 293.553 332.823C294.008 334.116 294.745 335.291 295.709 336.266C297.354 338.343 299.23 340.229 301.298 341.885C305.304 344.847 310.729 346.275 313.252 350.577C313.607 351.41 314.154 352.148 314.847 352.73C316.059 353.499 317.637 352.913 318.941 352.317L323.513 350.224C324.335 349.927 325.07 349.426 325.648 348.767C326.693 347.348 326.051 345.329 325.175 343.8C324.299 342.27 323.176 340.687 323.364 338.933C323.701 335.806 327.712 334.61 329.361 331.935C331.023 329.238 329.942 325.764 330.133 322.6C330.357 318.899 332.677 314.086 328.945 311.321C325.772 308.972 322.74 311.143 320.462 313.737C315.659 319.207 313.388 325.132 304.559 324.392Z" fill="#F2F7FB"/>
<path d="M332.299 269.102C333.86 272.095 337.112 273.883 338.814 276.798C340.657 279.959 340.447 284.042 342.449 287.106C344.501 290.248 348.632 291.918 349.784 295.492C351.039 299.395 348.188 304.139 350.461 307.549C350.886 308.106 351.42 308.569 352.032 308.909C352.643 309.248 353.319 309.457 354.015 309.521C354.712 309.585 355.414 309.504 356.076 309.281C356.74 309.06 357.351 308.702 357.868 308.23C358.827 307.185 359.339 305.805 359.298 304.386C359.256 302.967 358.663 301.621 357.644 300.634C356.299 299.403 354.366 298.873 353.243 297.435C352.657 296.607 352.267 295.655 352.103 294.654C351.489 291.764 351.587 288.767 352.388 285.924C352.689 285.203 352.765 284.407 352.607 283.641C352.101 282.167 350.111 282.063 348.713 281.378C345.539 279.826 345.617 275.338 346.171 271.841C345.802 274.169 337.529 270.21 336.663 268.893C334.942 266.274 335.879 261.222 335.539 258.327C331.825 260.121 330.392 265.441 332.299 269.102Z" fill="#F2F7FB"/>
<path d="M248.969 315.171C247.443 313.458 245.143 311.666 243.097 312.698C241.535 313.486 241.106 315.652 241.718 317.294C242.463 318.889 243.611 320.26 245.048 321.272C249.314 324.798 253.907 327.98 257.628 332.08C264.286 339.413 267.815 349.312 275.058 356.068C276.513 357.634 278.441 358.679 280.545 359.044C282.656 359.241 285.025 357.888 285.267 355.777C285.467 354.04 284.258 352.483 283.077 351.195C280.264 348.129 277.184 345.307 274.526 342.101C273.3 340.87 272.53 339.258 272.342 337.528C272.328 335.803 273.899 333.997 275.566 334.423C273.538 333.903 272.033 330.516 269.056 329.88C266.568 329.347 265.966 330.891 263.005 329.619C257.356 327.19 252.925 319.608 248.969 315.171Z" fill="#F2F7FB"/>
<path d="M381.682 148.383C380.061 147.9 378.469 147.33 376.91 146.675C372.716 145.413 367.168 148.502 367.727 152.855C368.098 155.747 370.783 157.696 372.266 160.204C374.465 163.924 373.88 168.642 372.723 172.808C372.44 174.098 371.901 175.318 371.137 176.395C370.069 177.53 368.795 178.45 367.379 179.103C361.716 182.286 356.721 186.538 352.672 191.625C352.232 192.095 351.925 192.674 351.784 193.303C351.584 194.772 353.059 195.844 353.891 197.069C355.742 199.791 354.405 203.454 354.588 206.744C354.559 207.209 354.65 207.674 354.852 208.094C355.052 208.514 355.357 208.876 355.738 209.143C356.852 209.712 358.175 208.748 358.78 207.648C360.786 204.005 359.275 198.156 363.04 196.4C363.75 196.068 364.614 195.928 365.09 195.301C365.844 194.307 365.116 192.835 365.497 191.646C366.072 189.86 368.507 189.781 370.376 189.86C373.596 189.995 376.815 189.565 379.887 188.59C381.092 188.303 382.187 187.667 383.036 186.763C384.162 185.356 384.062 183.355 383.838 181.564C382.71 172.643 379.89 164.02 375.531 156.161C378.836 156.585 382.434 156.951 385.288 155.224C386.885 154.257 388.801 151.365 388.009 149.396C386.755 146.283 384.491 148.903 381.682 148.383Z" fill="#F2F7FB"/>
<path d="M-42.2427 197.449C-41.846 199.575 -41.458 201.815 -42.153 203.863C-42.848 205.913 -45.0364 207.624 -47.1024 206.997C-48.7062 206.509 -49.6322 204.893 -50.7704 203.661C-57.1028 196.81 -71.3886 200.776 -75.3015 192.301C-76.8966 188.842 -75.8119 184.698 -76.9018 181.045C-77.5882 178.935 -78.9557 177.113 -80.7871 175.866C-82.6203 174.618 -84.8138 174.016 -87.0247 174.153C-89.0406 174.445 -91.0031 175.033 -92.85 175.897C-105.216 180.861 -118.2 184.115 -131.443 185.57C-133.96 185.724 -136.449 186.179 -138.86 186.924C-144.297 188.899 -148.012 193.951 -150.657 199.107C-153.301 204.263 -155.253 209.845 -158.797 214.425C-162.523 219.239 -167.744 222.611 -172.614 226.256C-174.49 227.467 -176.052 229.109 -177.171 231.043C-178.227 233.216 -178.168 235.743 -178.085 238.157L-177.09 267.488C-176.963 271.261 -176.802 275.168 -175.118 278.544C-173.014 282.761 -168.858 285.521 -165.974 289.246C-163.032 293.072 -161.499 297.801 -161.635 302.632C-161.697 304.573 -161.889 306.87 -160.38 308.088C-159.462 308.685 -158.388 308.994 -157.295 308.979L-117.707 312.226C-110.743 312.797 -103.026 313.737 -98.4806 319.053C-96.3353 321.563 -94.6107 325.172 -91.3238 325.441C-89.9149 325.557 -88.5439 324.976 -87.1333 324.864C-83.5756 324.582 -80.4509 327.289 -78.478 330.268C-75.4929 334.812 -74.1391 340.236 -74.6358 345.653C-74.96 349.054 -76.012 352.359 -76.2379 355.767C-77.1001 368.733 -66.1323 380 -65.9202 392.994C-65.7943 400.637 -69.4157 407.778 -72.9458 414.555C-67.248 423.204 -71.9128 434.722 -69.6451 444.833C-67.4929 454.427 -59.5136 461.937 -57.5236 471.565C-56.613 475.973 -56.5613 481.396 -52.6829 483.667C-50.9808 484.499 -49.0942 484.877 -47.2058 484.766C-35.8051 484.901 -24.5372 482.329 -14.3195 477.262C-9.52367 474.877 -4.55362 471.316 -3.71724 466.017C-3.04123 461.745 -5.20375 456.964 -3.00328 453.241C-0.409637 448.855 6.23485 449.202 10.0512 445.83C16.2422 440.356 11.4136 429.92 13.9227 422.039C16.1767 414.955 23.9387 411.19 27.786 404.832C29.3002 402.097 30.3866 399.145 31.0074 396.081C32.7698 388.756 33.8666 381.286 34.2857 373.763C34.3874 369.191 34.7237 364.628 35.2928 360.091C39.4402 334.264 64.9163 316.97 73.1888 292.158C73.9786 289.789 74.3494 286.633 72.2455 285.291C70.9987 284.695 69.5846 284.547 68.2395 284.871L49.9907 287.177C47.7247 287.464 45.3225 287.732 43.241 286.788C41.1595 285.844 39.6679 283.205 40.7716 281.2C43.8705 275.575 37.495 268.464 34.6633 262.698C27.0341 247.171 17.9512 232.405 7.53342 218.603C6.86603 217.892 6.4487 216.983 6.34351 216.014L11.5239 216.186C9.77527 209.899 6.89021 203.02 0.795807 200.719C-2.6394 199.423 -6.44199 199.871 -10.1066 200.071C-20.6019 200.647 -31.8543 199.058 -42.2427 197.449Z" fill="#F2F7FB"/>
<path d="M-10.0982 55.7617C-7.3528 58.6847 -4.27455 61.784 -0.3013 62.2935C6.71744 63.1934 11.7634 55.9191 14.9778 49.6008C15.0968 51.2116 15.8367 52.7123 17.0438 53.7837C18.2492 54.8553 19.8254 55.4131 21.4344 55.3384C23.1675 55.0463 24.8213 54.3983 26.2906 53.4353C40.197 45.8188 55.7727 41.7832 71.6209 41.6911C71.4691 40.488 71.7658 39.2711 72.4573 38.275C73.1471 37.279 74.1801 36.5745 75.3596 36.2974C78.581 35.6572 81.4834 38.4492 83.0372 41.3494C84.5927 44.2494 85.5601 47.6111 88.0296 49.7817C90.4991 51.9525 95.2811 51.858 96.2555 48.7145C97.1919 45.6966 94.055 43.1229 91.4493 41.3435C88.8436 39.5644 86.0964 36.2711 87.8502 33.6454C101.165 30.6913 114.563 27.7263 128.188 27.1392C130.508 27.2201 132.818 26.821 134.978 25.9669C137.056 24.9449 138.708 22.6252 138.149 20.3742C135.176 21.0747 132.061 20.8718 129.204 19.7914C126.346 18.7112 123.873 16.8023 122.102 14.3083C141.008 12.7448 161.116 11.4121 177.869 20.3276C179.88 24.6533 169.633 28.2523 172.375 32.1539C173.249 33.3983 175.002 33.5441 176.519 33.5725C188.163 33.7891 199.872 34.0015 211.383 32.2399C215.591 31.5961 219.84 30.6872 224.064 31.2093C231.098 32.0788 237.115 36.7831 244.035 38.3168C246.853 38.9411 250.011 38.9624 252.385 37.3203C254.76 35.6781 255.781 31.9392 253.836 29.8047C260.351 23.4039 271.167 24.9902 279.762 28.0545C288.358 31.1189 296.503 36.0608 305.602 36.7439C312.126 37.2337 318.741 35.4747 325.189 36.5928C329.24 37.2954 333.011 39.1017 336.971 40.2115C344.458 42.3104 352.381 41.8674 360.157 41.9683C379.995 42.2362 399.618 46.1441 418.053 53.4984C420.45 54.281 422.647 55.5819 424.489 57.3096C426.203 59.1505 427.079 62.0111 425.926 64.2493L406.877 61.4597C408.672 65.0008 413.314 65.6043 417.086 66.8259C420.857 68.0474 424.767 72.2208 422.501 75.4791C418.414 74.1753 414.713 78.2692 412.649 82.0358C410.585 85.8026 408.07 90.3138 403.788 90.5432C399.955 90.7487 395.318 87.4767 392.819 90.3981C396.271 94.7633 399.227 99.5005 401.633 104.522C404.102 109.677 405.861 116.173 402.522 120.811C401.998 121.639 401.202 122.258 400.27 122.562C397.546 123.253 395.775 119.912 393.821 117.886C391.358 115.334 387.633 114.611 384.298 113.414C380.963 112.217 377.448 109.863 377.188 106.322C377.026 104.119 378.186 102.071 379.042 100.034C380.478 96.6024 381.106 92.8847 380.876 89.1698C380.69 86.1811 379.854 83.0723 377.712 80.9841C375.57 78.8961 371.873 78.2336 369.574 80.1462C368.501 81.0386 367.643 82.466 366.249 82.5193C363.787 82.6138 361.898 78.3128 359.917 79.7808C360.15 81.3452 359.825 82.9417 359.003 84.2912C353.093 89.4422 344.015 87.2631 336.396 89.0827C332.773 90.1218 329.305 91.64 326.082 93.597C324.877 94.1136 323.851 94.9767 323.135 96.0772C322.183 97.9293 323.231 100.301 324.908 101.533C326.686 102.626 328.683 103.309 330.755 103.534C340.044 105.297 349.468 108.026 356.801 114.005C364.133 119.984 368.941 129.868 366.622 139.052L348.306 121.511C349.001 128.876 349.396 136.262 349.491 143.667C349.608 145.113 349.409 146.567 348.909 147.929C347.604 150.819 344.064 151.792 340.963 152.43C340.101 152.594 339.283 152.939 338.562 153.443C337.843 153.947 337.236 154.597 336.786 155.352C336.334 156.107 336.048 156.949 335.944 157.823C335.841 158.697 335.922 159.582 336.184 160.422C337.286 164.022 340.035 166.828 342.549 169.624C345.065 172.421 347.54 175.599 347.869 179.35C348.199 183.101 345.376 187.328 341.628 187.067C338.788 186.868 336.679 184.321 335.469 181.737C334.256 179.155 333.535 176.277 331.714 174.082C326.203 167.439 313.826 170.285 308.889 163.204C307.63 164.634 306.757 166.364 306.354 168.228C305.948 170.091 306.028 172.027 306.58 173.852C308.877 172.411 312.02 173.75 313.747 175.845C315.471 177.938 316.285 180.622 317.641 182.974C319.47 186.148 322.38 188.961 322.635 192.617C322.568 194 322.59 195.384 322.705 196.763C323.157 198.979 325.027 200.569 326.322 202.42C329.335 206.727 329.186 212.647 327.244 217.535C325.301 222.422 321.812 226.507 318.354 230.466C312.317 237.383 306.157 244.258 299 250.002C296.957 251.64 294.777 253.253 293.506 255.543C292.233 257.835 292.168 261.051 294.124 262.795C292.725 262.864 290.216 263.554 288.817 263.625C288.326 258.001 288.219 252.351 288.498 246.713C282.978 244.058 277.035 251.17 277.748 257.264C278.46 263.359 282.859 268.25 285.991 273.523C288.281 277.379 289.983 281.874 289.217 286.296C288.453 290.718 284.515 294.796 280.055 294.407C272.96 293.786 269.992 283.579 262.967 282.41C262.348 282.265 261.698 282.329 261.118 282.593C260.075 283.167 259.894 284.567 259.835 285.758C259.547 291.602 259.299 297.679 261.575 303.068C264.905 310.951 273.509 317.572 271.705 325.939C261.982 321.411 256.928 310.482 254.632 299.986C252.337 289.491 251.954 278.471 247.841 268.549C244.716 272.562 238.151 269.245 235.295 265.035C232.59 261.043 230.924 256.426 228.299 252.382C225.673 248.336 221.651 244.715 216.842 244.492C211.799 244.258 207.426 247.727 203.58 251.004C200.417 253.699 197.17 256.499 195.321 260.225C192.631 265.645 193.335 272.035 193.205 278.088C193.066 284.631 191.681 291.534 187.232 296.325C182.783 301.115 174.569 302.784 169.661 298.467C167.098 296.213 165.858 292.844 164.753 289.612C159.426 274.031 154.99 258.158 151.466 242.07C150.641 245.743 147.423 250.475 144.35 248.312C143.66 247.731 143.102 247.01 142.712 246.196C136.978 236.458 126.362 230.617 115.635 227.115C104.909 223.613 93.6239 221.98 83.0164 218.131C77.0721 215.972 71.395 213.138 66.0956 209.683C64.7453 211.672 63.9555 213.99 63.8124 216.392C63.6692 218.795 64.178 221.19 65.2834 223.326C67.6356 227.502 72.9609 229.918 77.5187 228.458C79.8727 227.704 81.8627 226.066 84.1994 225.255C86.5361 224.446 89.673 224.844 90.6957 227.101C91.6734 229.26 90.1956 231.873 90.9285 234.129C92.046 237.565 97.2143 237.829 99.0216 240.954C100.367 243.28 99.2596 246.369 97.3402 248.244C95.4191 250.121 92.8582 251.151 90.5146 252.456C82.9078 256.696 77.4998 263.931 70.8535 269.56C64.2073 275.191 54.8294 279.301 46.907 275.689C48.7954 266.107 37.4067 259.072 35.3115 249.532C34.6217 246.393 34.9786 243.057 33.9939 239.998C32.5695 235.567 28.6479 232.521 25.43 229.165C21.5275 225.048 18.4889 220.191 16.4902 214.878C14.4915 209.565 13.5758 203.905 13.7948 198.232C13.969 194.29 14.6916 190.282 13.7948 186.44C12.8981 182.598 9.72496 178.878 5.79137 179.053C-3.19331 179.45 -14.5112 180.119 -19.226 172.443C-20.9074 169.704 -21.6403 165.691 -19.207 163.593C-17.4911 162.112 -14.9596 162.251 -12.7057 162.473L7.53661 164.469C12.2721 164.936 17.3904 165.321 21.4533 162.841C25.5163 160.36 27.2753 153.775 23.5141 150.856C20.7653 148.724 15.8401 148.84 15.0416 145.449C14.376 142.625 17.4939 139.421 15.8108 137.061C14.6019 135.369 11.8875 135.839 10.2424 137.107C8.59717 138.376 7.40205 140.231 5.56201 141.191C2.33202 142.876 -1.52913 141.273 -5.004 140.183C-8.47888 139.093 -13.1385 139 -14.8233 142.235C-16.7082 145.853 -13.1506 150.594 -15.0216 154.219C-17.4963 159.013 -25.8722 156.284 -29.3471 160.407C-33.3325 165.138 -26.6345 172.192 -27.9779 178.235C-29.6937 179.087 -31.6011 179.48 -33.5135 179.371C-35.426 179.264 -37.2782 178.66 -38.8888 177.622C-40.4719 176.541 -41.7342 175.052 -42.5413 173.311C-43.3467 171.57 -43.6674 169.642 -43.4674 167.733C-43.1346 165.014 -41.7205 162.239 -42.6689 159.669C-43.4346 157.592 -45.5161 156.355 -47.4493 155.284L-67.1207 144.389C-68.947 147.785 -66.6396 151.995 -63.751 154.545C-60.8642 157.095 -57.2462 159.017 -55.3492 162.373C-54.149 164.699 -53.8799 167.395 -54.5973 169.913C-55.3147 172.431 -56.9633 174.58 -59.2069 175.919C-59.488 176.115 -59.8088 176.244 -60.1451 176.305C-60.4814 176.363 -60.8263 176.348 -61.1574 176.26C-61.4712 176.075 -61.7454 175.829 -61.9627 175.537C-62.1782 175.243 -62.3352 174.91 -62.4214 174.556C-65.8929 165.654 -71.1043 156.877 -79.4354 152.226C-87.7665 147.576 -99.738 148.532 -105.201 156.366C-106.5 158.226 -107.371 160.347 -108.5 162.314C-114.507 172.766 -127.382 177.715 -139.412 177.392C-140.588 177.457 -141.759 177.181 -142.783 176.597C-144.729 175.252 -144.641 172.396 -144.342 170.047L-143.08 160.077C-142.827 158.075 -142.459 155.863 -140.878 154.613C-138.65 152.852 -135.435 153.963 -132.597 153.922C-130.446 153.821 -128.379 153.06 -126.675 151.742C-124.971 150.424 -123.712 148.613 -123.071 146.554C-122.498 144.475 -122.501 142.278 -123.081 140.2C-123.662 138.123 -124.797 136.244 -126.364 134.765C-127.665 133.541 -129.41 132.002 -128.723 130.352C-128.449 129.895 -128.079 129.504 -127.637 129.207C-127.196 128.909 -126.695 128.712 -126.171 128.629C-121.072 127.145 -115.686 126.756 -110.673 125.006C-105.66 123.255 -100.799 119.673 -99.6121 114.488C-99.2482 112.899 -99.0827 110.974 -97.6582 110.186C-96.9426 109.883 -96.1752 109.726 -95.4009 109.723C-92.683 109.336 -90.2084 107.943 -88.4632 105.818C-86.7197 103.694 -85.8316 100.992 -85.9764 98.2444C-83.5742 96.562 -80.208 97.7995 -77.8834 99.589C-75.5604 101.378 -73.5083 103.743 -70.6801 104.514C-65.41 105.952 -60.3158 101.275 -54.8543 101.253C-52.5573 101.244 -50.1809 102.058 -48.0201 101.278C-45.8282 100.486 -44.521 98.3009 -42.8397 96.6864C-41.1583 95.0718 -38.2076 94.087 -36.6556 95.8264L-37.9783 86.0123C-35.3156 86.6863 -32.5392 86.7817 -29.8369 86.2921C-27.1363 85.8024 -24.5685 84.7392 -22.3112 83.1734L-39.3958 77.3876C-39.9908 77.2388 -40.5409 76.9446 -40.9944 76.5315C-42.2361 75.191 -41.0031 73.1019 -39.9925 71.5781C-37.5765 67.9326 -37.1712 61.9276 -41.1445 60.1126C-43.8571 58.8739 -46.9698 60.3608 -49.5738 61.8156L-62.0438 68.7845C-62.4404 71.1601 -59.5415 72.5065 -57.7446 74.1068C-56.6581 75.0749 -55.889 76.3499 -55.5389 77.7642C-55.1871 79.1785 -55.2716 80.6661 -55.7803 82.0313C-56.2891 83.3966 -57.1979 84.5758 -58.3861 85.4143C-59.576 86.2525 -60.9901 86.7107 -62.4455 86.7287C-61.6229 87.7985 -61.0521 89.04 -60.7745 90.361C-60.4986 91.6818 -60.5193 93.0484 -60.84 94.3595L-69.2315 94.9643C-70.1731 95.1543 -71.1508 94.9627 -71.9527 94.432C-72.8495 93.6333 -72.7288 92.2335 -72.9357 91.0489C-73.4375 88.1895 -76.2312 86.1854 -79.0836 85.6716C-81.9342 85.1578 -84.8504 85.8164 -87.6734 86.4667C-88.8719 86.8991 -90.1894 86.8687 -91.3673 86.3813C-92.0415 85.9417 -92.5554 85.2926 -92.8279 84.5331C-94.0661 81.5255 -92.909 77.9901 -90.9206 75.4179C-88.9323 72.8458 -86.211 70.9655 -83.7673 68.8241C-77.923 63.6846 -73.629 57.0094 -71.3699 49.5527C-66.7517 47.6132 -61.9696 44.9778 -57.3514 43.0382C-50.2292 39.4247 -42.243 37.874 -34.2913 38.5605L-18.65 38.8599C-14.018 38.9485 -9.2618 39.0621 -4.97984 40.8316C-0.696182 42.6013 3.06665 46.4284 3.36154 51.0612C3.45122 51.5858 3.40468 52.1243 3.2305 52.6266C3.0546 53.1287 2.75452 53.5779 2.35788 53.9322C1.7543 54.2628 1.06795 54.4177 0.381607 54.3788C-3.93828 54.5311 -5.78004 55.6096 -10.0982 55.7617Z" fill="#F2F7FB"/>
</svg>
